<?xml version="1.0" encoding="UTF-8" standalone="no"?>
<!-- Created with Inkscape (http://www.inkscape.org/) -->

<svg
   xmlns:dc="http://purl.org/dc/elements/1.1/"
   xmlns:cc="http://creativecommons.org/ns#"
   xmlns:rdf="http://www.w3.org/1999/02/22-rdf-syntax-ns#"
   xmlns:svg="http://www.w3.org/2000/svg"
   xmlns="http://www.w3.org/2000/svg"
   xmlns:sodipodi="http://sodipodi.sourceforge.net/DTD/sodipodi-0.dtd"
   xmlns:inkscape="http://www.inkscape.org/namespaces/inkscape"
   inkscape:version="0.91 r13725"
   version="1.1"
   id="svg2"
   viewBox="0 0 639.629 489.8223"
   height="138.23874mm"
   width="180.51752mm"
   sodipodi:docname="HydrostaticProblem_1.svg">
  <sodipodi:namedview
     inkscape:window-maximized="1"
     inkscape:window-y="24"
     inkscape:window-x="0"
     inkscape:window-height="1056"
     inkscape:window-width="1920"
     inkscape:object-paths="true"
     showgrid="false"
     inkscape:current-layer="layer1"
     inkscape:document-units="px"
     inkscape:cy="382.78379"
     inkscape:cx="179.98514"
     inkscape:zoom="0.98994949"
     inkscape:pageshadow="2"
     inkscape:pageopacity="0.0"
     borderopacity="1.0"
     bordercolor="#666666"
     pagecolor="#ffffff"
     id="base"
     fit-margin-top="0"
     fit-margin-left="0"
     fit-margin-right="0"
     fit-margin-bottom="0" />
  <defs
     id="defs4">
    <marker
       inkscape:stockid="Arrow1Lend"
       orient="auto"
       refY="0"
       refX="0"
       id="marker4194"
       style="overflow:visible"
       inkscape:isstock="true">
      <path
         id="path4196"
         d="M 0,0 5,-5 -12.5,0 5,5 0,0 Z"
         style="fill:#000000;fill-opacity:1;fill-rule:evenodd;stroke:#000000;stroke-width:1pt;stroke-opacity:1"
         transform="matrix(-0.8,0,0,-0.8,-10,0)"
         inkscape:connector-curvature="0" />
    </marker>
    <marker
       inkscape:collect="always"
       inkscape:isstock="true"
       style="overflow:visible"
       id="Arrow1Lend"
       refX="0"
       refY="0"
       orient="auto"
       inkscape:stockid="Arrow1Lend">
      <path
         transform="matrix(-0.8,0,0,-0.8,-10,0)"
         style="fill:#000000;fill-opacity:1;fill-rule:evenodd;stroke:#000000;stroke-width:1pt;stroke-opacity:1"
         d="M 0,0 5,-5 -12.5,0 5,5 0,0 Z"
         id="path4153"
         inkscape:connector-curvature="0" />
    </marker>
    <marker
       inkscape:isstock="true"
       style="overflow:visible"
       id="Arrow1Lstart"
       refX="0"
       refY="0"
       orient="auto"
       inkscape:stockid="Arrow1Lstart">
      <path
         transform="matrix(0.8,0,0,0.8,10,0)"
         style="fill:#000000;fill-opacity:1;fill-rule:evenodd;stroke:#000000;stroke-width:1pt;stroke-opacity:1"
         d="M 0,0 5,-5 -12.5,0 5,5 0,0 Z"
         id="path4150"
         inkscape:connector-curvature="0" />
    </marker>
  </defs>
  <metadata
     id="metadata7">
    <rdf:RDF>
      <cc:Work
         rdf:about="">
        <dc:format>image/svg+xml</dc:format>
        <dc:type
           rdf:resource="http://purl.org/dc/dcmitype/StillImage" />
        <dc:title></dc:title>
      </cc:Work>
    </rdf:RDF>
  </metadata>
  <g
     id="layer1"
     inkscape:groupmode="layer"
     inkscape:label="Layer 1"
     transform="translate(-19.156279,-342.57743)">
    <path
       sodipodi:nodetypes="caaaac"
       inkscape:connector-curvature="0"
       id="path4136"
       d="m 135.98362,400.01517 c 0,0 65.46119,-12.06446 98.44473,-12.89292 47.61137,-1.19588 94.95912,12.30959 142.57513,11.46037 37.11579,-0.66195 73.77387,-12.46029 110.89177,-12.89291 36.11607,-0.42095 71.90102,11.02837 108.0629,10.02781 21.06117,-0.58274 62.51806,-9.31155 62.51806,-9.31155"
       style="fill:none;fill-rule:evenodd;stroke:#0000ff;stroke-width:3;stroke-linecap:butt;stroke-linejoin:miter;stroke-miterlimit:4;stroke-dasharray:none;stroke-opacity:1" />
    <path
       sodipodi:nodetypes="cc"
       inkscape:connector-curvature="0"
       id="path4138"
       d="m 197.198,788.66668 434.36559,0"
       style="fill:none;fill-rule:evenodd;stroke:#0000ff;stroke-width:1px;stroke-linecap:butt;stroke-linejoin:miter;stroke-opacity:1" />
    <path
       sodipodi:nodetypes="cc"
       inkscape:connector-curvature="0"
       id="path4140"
       d="m 110.32488,396.81381 -85.862965,0"
       style="fill:none;fill-rule:evenodd;stroke:#000000;stroke-width:1px;stroke-linecap:butt;stroke-linejoin:miter;stroke-opacity:1" />
    <path
       sodipodi:nodetypes="cc"
       inkscape:connector-curvature="0"
       id="path4142"
       d="m 125.47717,788.66668 -103.03556,0"
       style="fill:none;fill-rule:evenodd;stroke:#000000;stroke-width:1px;stroke-linecap:butt;stroke-linejoin:miter;stroke-opacity:1" />
    <path
       sodipodi:nodetypes="cc"
       inkscape:connector-curvature="0"
       id="path4144"
       d="m 56.786797,396.81381 0,391.85287"
       style="fill:none;fill-rule:evenodd;stroke:#000000;stroke-width:1px;stroke-linecap:butt;stroke-linejoin:miter;stroke-opacity:1;marker-start:url(#Arrow1Lstart);marker-end:url(#Arrow1Lend)" />
    <g
       id="g5012"
       transform="matrix(0,-0.82278945,0.82278945,0,-245.39839,857.92144)">
      <g
         word-spacing="normal"
         letter-spacing="normal"
         font-size-adjust="none"
         font-stretch="normal"
         font-weight="normal"
         font-variant="normal"
         font-style="normal"
         stroke-miterlimit="10.433"
         xml:space="preserve"
         transform="matrix(1.0629921,0,0,-1.0629921,-186.02362,789.27165)"
         id="content"
         style="font-style:normal;font-variant:normal;font-weight:normal;font-stretch:normal;letter-spacing:normal;word-spacing:normal;text-anchor:start;fill:none;fill-opacity:1;fill-rule:evenodd;stroke:#000000;stroke-linecap:butt;stroke-linejoin:miter;stroke-miterlimit:10.43299961;stroke-dasharray:none;stroke-dashoffset:0;stroke-opacity:1"><path
           id="path5015"
           d="m 494.01,436.19 0.04,0.16 0.04,0.16 0.04,0.15 0.04,0.14 0.04,0.14 0.04,0.12 0.04,0.13 0.05,0.11 0.05,0.11 0.05,0.1 0.06,0.1 0.07,0.09 0.07,0.08 0.08,0.08 0.09,0.08 0.09,0.06 0.11,0.07 0.11,0.05 0.13,0.06 0.14,0.05 0.15,0.04 0.16,0.04 0.09,0.01 0.09,0.02 0.09,0.02 0.1,0.01 0.1,0.01 0.1,0.02 0.11,0.01 0.11,0.01 0.12,0.01 0.12,0.01 0.13,0.01 0.13,0 0.13,0.01 0.14,0 0.14,0.01 0.15,0 0.15,0 0.16,0.01 0.16,0 0.17,0 c 1.3,0 1.7,0 1.7,0.99 0,0.55 -0.55,0.55 -0.7,0.55 l -12.8,0 c -0.4,0 -0.95,0 -0.95,-0.99 0,-0.55 0.45,-0.55 1.4,-0.55 0.09,0 1.04,0 1.89,-0.1 0.89,-0.1 1.34,-0.15 1.34,-0.8 0,-0.2 -0.05,-0.3 -0.2,-0.94 l -2.99,-12.16 -15.19,0 2.94,11.71 c 0.45,1.79 0.6,2.29 4.18,2.29 1.3,0 1.7,0 1.7,0.99 0,0.55 -0.55,0.55 -0.7,0.55 l -12.8,0 c -0.4,0 -0.95,0 -0.95,-0.99 0,-0.55 0.45,-0.55 1.4,-0.55 0.1,0 1.04,0 1.89,-0.1 0.9,-0.1 1.35,-0.15 1.35,-0.8 0,-0.2 -0.06,-0.35 -0.2,-0.94 l -6.68,-26.75 c -0.5,-1.95 -0.6,-2.35 -4.53,-2.35 -0.9,0 -1.35,0 -1.35,-0.99 0,-0.55 0.6,-0.55 0.7,-0.55 1.4,0 4.93,0.15 6.32,0.15 1.05,0 2.15,-0.05 3.2,-0.05 1.09,0 2.19,-0.1 3.23,-0.1 0.4,0 1,0 1,1 0,0.54 -0.45,0.54 -1.4,0.54 -1.84,0 -3.23,0 -3.23,0.9 0,0.3 0.1,0.55 0.15,0.85 l 3.38,13.65 15.19,0 c -2.09,-8.27 -3.23,-13.01 -3.43,-13.75 -0.5,-1.6 -1.44,-1.65 -4.53,-1.65 -0.75,0 -1.2,0 -1.2,-0.99 0,-0.55 0.6,-0.55 0.7,-0.55 1.39,0 4.93,0.15 6.32,0.15 1.05,0 2.14,-0.05 3.19,-0.05 1.1,0 2.19,-0.1 3.24,-0.1 0.4,0 1,0 1,1 0,0.54 -0.45,0.54 -1.4,0.54 -1.84,0 -3.24,0 -3.24,0.9 0,0.3 0.1,0.55 0.15,0.85 z"
           inkscape:connector-curvature="0"
           style="fill:#000000;stroke-width:0" /></g>    </g>
    <path
       style="fill:none;fill-rule:evenodd;stroke:#0000ff;stroke-width:3;stroke-linecap:butt;stroke-linejoin:miter;stroke-miterlimit:4;stroke-dasharray:12, 6;stroke-dashoffset:0;stroke-opacity:0.475"
       d="m 135.98362,432.01517 c 0,0 66.86373,7.98326 100.46504,8.32028 46.60375,0.46744 92.94174,-8.20019 139.54467,-8.74268 36.31605,-0.42274 72.58207,5.73388 108.87146,4.27969 36.92785,-1.47977 73.28605,-9.76699 110.08321,-13.2057 21.13157,-1.97476 63.52821,-4.26079 63.52821,-4.26079"
       id="path5503"
       inkscape:connector-curvature="0"
       sodipodi:nodetypes="caaaac" />
    <path
       sodipodi:nodetypes="caaaac"
       inkscape:connector-curvature="0"
       id="path5505"
       d="m 135.98362,486.01517 c 0,0 67.60894,-5.83085 101.47519,-7.84216 45.80028,-2.72007 91.72006,-8.36358 137.52437,-5.71222 37.02222,2.143 72.80403,16.71154 109.88161,17.41167 36.9509,0.69774 73.28605,-9.76699 110.08321,-13.2057 21.13157,-1.97476 63.52821,-4.26079 63.52821,-4.26079"
       style="fill:none;fill-rule:evenodd;stroke:#0000ff;stroke-width:3;stroke-linecap:butt;stroke-linejoin:miter;stroke-miterlimit:4;stroke-dasharray:12, 6;stroke-dashoffset:0;stroke-opacity:0.475" />
    <path
       style="fill:none;fill-rule:evenodd;stroke:#0000ff;stroke-width:3;stroke-linecap:butt;stroke-linejoin:miter;stroke-miterlimit:4;stroke-dasharray:12, 6;stroke-dashoffset:0;stroke-opacity:0.475"
       d="m 135.98362,546.01517 c 0,0 68.01659,-13.26319 102.48534,-13.90308 46.05323,-0.85494 91.46339,13.61044 137.52437,13.48068 35.13092,-0.099 69.73249,-9.35732 104.83085,-10.8726 38.0114,-1.64104 76.08886,2.89602 114.12382,1.94659 21.21704,-0.52962 63.52821,-4.26079 63.52821,-4.26079"
       id="path5507"
       inkscape:connector-curvature="0"
       sodipodi:nodetypes="caaaac" />
    <path
       sodipodi:nodetypes="caaaac"
       inkscape:connector-curvature="0"
       id="path5509"
       d="m 135.98362,630.01517 c 0,0 66.20082,-20.91961 100.46504,-21.9843 47.04418,-1.4618 92.49,20.48932 139.54467,21.5619 36.83118,0.83955 73.07079,-10.39807 109.88161,-11.88275 36.3415,-1.46575 72.70924,3.68171 109.07306,2.95674 21.21943,-0.42304 63.52821,-4.26079 63.52821,-4.26079"
       style="fill:none;fill-rule:evenodd;stroke:#0000ff;stroke-width:3;stroke-linecap:butt;stroke-linejoin:miter;stroke-miterlimit:4;stroke-dasharray:12, 6;stroke-dashoffset:0;stroke-opacity:0.475" />
    <path
       style="fill:none;fill-rule:evenodd;stroke:#0000ff;stroke-width:3;stroke-linecap:butt;stroke-linejoin:miter;stroke-miterlimit:4;stroke-dasharray:12, 6;stroke-dashoffset:0;stroke-opacity:0.475"
       d="m 135.98362,698.01517 c 0,0 73.37018,-15.12303 110.56656,-18.95384 43.95319,-4.52669 88.29745,-5.61901 132.47361,-4.70207 36.05281,0.74833 71.87963,5.93601 107.86131,8.3203 35.99726,2.38533 71.9873,6.19682 108.0629,5.9872 21.22329,-0.12332 63.52821,-4.26079 63.52821,-4.26079"
       id="path5511"
       inkscape:connector-curvature="0"
       sodipodi:nodetypes="caaaac" />
    <path
       sodipodi:nodetypes="caaaac"
       inkscape:connector-curvature="0"
       id="path5513"
       d="m 135.98362,760.01517 c 0,0 67.6933,-4.71932 101.47519,-7.84216 45.91053,-4.24403 91.43396,-13.59412 137.52437,-14.8036 38.3551,-1.00648 76.63459,3.97472 114.93237,6.3 35.02393,2.1265 69.94403,7.00518 105.03245,6.99735 21.22364,-0.005 63.52821,-4.26079 63.52821,-4.26079"
       style="fill:none;fill-rule:evenodd;stroke:#0000ff;stroke-width:3;stroke-linecap:butt;stroke-linejoin:miter;stroke-miterlimit:4;stroke-dasharray:12, 6;stroke-dashoffset:0;stroke-opacity:0.475" />
    <path
       inkscape:connector-curvature="0"
       id="path4186"
       d="m 92.0051,396.81381 0,92.89343"
       style="fill:none;fill-rule:evenodd;stroke:#000000;stroke-width:2;stroke-linecap:butt;stroke-linejoin:miter;stroke-miterlimit:4;stroke-dasharray:none;stroke-opacity:1;marker-end:url(#marker4194)" />
    <g
       id="g4254"
       transform="translate(-190.91883,123.23861)">
      <g
         word-spacing="normal"
         letter-spacing="normal"
         font-size-adjust="none"
         font-stretch="normal"
         font-weight="normal"
         font-variant="normal"
         font-style="normal"
         stroke-miterlimit="10.433"
         xml:space="preserve"
         transform="matrix(1.0629921,0,0,-1.0629921,-186.02362,789.27165)"
         id="g4256"
         style="font-style:normal;font-variant:normal;font-weight:normal;font-stretch:normal;letter-spacing:normal;word-spacing:normal;text-anchor:start;fill:none;fill-opacity:1;fill-rule:evenodd;stroke:#000000;stroke-linecap:butt;stroke-linejoin:miter;stroke-miterlimit:10.43299961;stroke-dasharray:none;stroke-dashoffset:0;stroke-opacity:1"><path
           id="path4258"
           d="m 462.77408,440.02 0,0.01 0,0 0,0.01 0,0.01 0,0.01 -0.01,0.01 0,0.02 0,0.02 0,0.02 -0.01,0.02 0,0.02 -0.01,0.02 -0.01,0.03 -0.01,0.02 -0.01,0.03 -0.01,0.02 -0.01,0.02 -0.02,0.03 -0.02,0.02 -0.02,0.03 -0.02,0.02 -0.01,0.01 -0.02,0.01 -0.01,0.01 -0.01,0.01 -0.02,0.01 -0.01,0.01 -0.02,0.01 -0.02,0.01 -0.01,0.01 -0.02,0.01 -0.02,0.01 -0.02,0 -0.02,0.01 -0.02,0.01 -0.02,0 -0.03,0.01 -0.02,0 -0.03,0.01 -0.02,0 -0.03,0 -0.02,0.01 -0.03,0 -0.03,0 -0.03,0 c -1.15,0 -4.78,-0.4 -6.08,-0.5 -0.4,-0.05 -0.95,-0.1 -0.95,-1 0,-0.59 0.45,-0.59 1.2,-0.59 2.39,0 2.49,-0.35 2.49,-0.85 l -0.15,-0.99 -7.22,-28.7 c -0.2,-0.69 -0.2,-0.8 -0.2,-1.09 0,-1.15 0.99,-1.4 1.44,-1.4 0.8,0 1.6,0.6 1.85,1.3 l 0.94,3.78 1.1,4.49 c 0.3,1.09 0.6,2.19 0.85,3.34 0.1,0.29 0.49,1.94 0.54,2.23 0.15,0.45 1.7,3.24 3.39,4.59 1.1,0.8 2.64,1.74 4.78,1.74 2.15,0 2.69,-1.69 2.69,-3.49 0,-2.68 -1.89,-8.11 -3.09,-11.15 -0.39,-1.15 -0.64,-1.75 -0.64,-2.74 0,-2.34 1.74,-4.09 4.08,-4.09 4.69,0 6.53,7.28 6.53,7.67 0,0.5 -0.45,0.5 -0.6,0.5 -0.5,0 -0.5,-0.15 -0.75,-0.89 -0.74,-2.64 -2.34,-6.18 -5.08,-6.18 -0.84,0 -1.19,0.5 -1.19,1.64 0,1.25 0.44,2.44 0.89,3.54 0.8,2.14 3.04,8.07 3.04,10.96 0,3.24 -1.99,5.33 -5.72,5.33 -3.15,0 -5.54,-1.55 -7.38,-3.84 z"
           inkscape:connector-curvature="0"
           style="fill:#000000;stroke-width:0" /></g>    </g>
  </g>
  <g
     transform="matrix(0.93541192,0,0,0.93541192,-6.8700005,-80.164299)"
     id="g5203">
    <g
       style="font-style:normal;font-variant:normal;font-weight:normal;font-stretch:normal;letter-spacing:normal;word-spacing:normal;text-anchor:start;fill:none;fill-opacity:1;fill-rule:evenodd;stroke:#000000;stroke-linecap:butt;stroke-linejoin:miter;stroke-miterlimit:10.43299961;stroke-dasharray:none;stroke-dashoffset:0;stroke-opacity:1"
       id="g5205"
       transform="matrix(1.0629921,0,0,-1.0629921,-186.02362,789.27165)"
       xml:space="preserve"
       stroke-miterlimit="10.433"
       font-style="normal"
       font-variant="normal"
       font-weight="normal"
       font-stretch="normal"
       font-size-adjust="none"
       letter-spacing="normal"
       word-spacing="normal"><path
         style="fill:#000000;stroke-width:0"
         inkscape:connector-curvature="0"
         d="m 481.7,440.02 0,0.01 0,0 0,0.01 0,0.01 0,0.01 0,0.01 0,0.02 0,0.02 -0.01,0.02 0,0.02 -0.01,0.02 0,0.02 -0.01,0.03 -0.01,0.02 -0.01,0.03 -0.01,0.02 -0.02,0.02 -0.01,0.03 -0.02,0.02 -0.02,0.03 -0.03,0.02 -0.01,0.01 -0.01,0.01 -0.01,0.01 -0.02,0.01 -0.01,0.01 -0.02,0.01 -0.01,0.01 -0.02,0.01 -0.02,0.01 -0.02,0.01 -0.01,0.01 -0.02,0 -0.03,0.01 -0.02,0.01 -0.02,0 -0.02,0.01 -0.02,0 -0.03,0.01 -0.02,0 -0.03,0 -0.03,0.01 -0.03,0 -0.03,0 -0.03,0 c -0.74,0 -5.47,-0.45 -6.32,-0.55 -0.4,-0.05 -0.7,-0.3 -0.7,-0.95 0,-0.59 0.45,-0.59 1.2,-0.59 2.39,0 2.49,-0.35 2.49,-0.85 l -0.15,-0.99 -2.99,-11.81 c -0.9,1.84 -2.34,3.19 -4.58,3.19 l 0.05,-1.1 c 3.24,0 3.93,-4.08 3.93,-4.38 0,-0.3 -0.1,-0.6 -0.15,-0.85 l -2.49,-9.76 c -0.25,-0.9 -0.25,-1 -0.99,-1.84 -2.19,-2.75 -4.24,-3.54 -5.63,-3.54 -2.49,0 -3.19,2.74 -3.19,4.68 0,2.49 1.59,8.62 2.74,10.91 1.54,2.94 3.78,4.78 5.78,4.78 l -0.05,1.1 c -5.83,0 -12.01,-7.32 -12.01,-14.6 0,-4.68 2.74,-7.97 6.63,-7.97 0.99,0 3.49,0.2 6.47,3.74 0.4,-2.09 2.14,-3.74 4.53,-3.74 1.75,0 2.9,1.15 3.69,2.74 0.85,1.79 1.5,4.83 1.5,4.93 0,0.5 -0.45,0.5 -0.6,0.5 -0.5,0 -0.55,-0.2 -0.7,-0.89 -0.85,-3.24 -1.74,-6.18 -3.78,-6.18 -1.35,0 -1.5,1.29 -1.5,2.29 0,1.2 0.1,1.54 0.3,2.39 z"
         id="path5207" /><path
         style="fill:#000000;stroke-width:0"
         inkscape:connector-curvature="0"
         d="m 483.24,399.92 -0.03,-0.15 -0.04,-0.15 -0.03,-0.14 -0.04,-0.13 -0.03,-0.13 -0.04,-0.11 -0.03,-0.12 -0.04,-0.1 -0.04,-0.1 -0.04,-0.09 -0.04,-0.09 -0.05,-0.08 -0.05,-0.07 -0.05,-0.07 -0.06,-0.07 -0.06,-0.05 -0.07,-0.06 -0.07,-0.05 -0.08,-0.04 -0.09,-0.04 -0.09,-0.04 -0.1,-0.03 -0.11,-0.03 -0.12,-0.02 -0.13,-0.02 -0.13,-0.02 -0.07,0 -0.08,-0.01 -0.07,-0.01 -0.08,0 -0.08,-0.01 -0.09,0 -0.08,0 -0.09,-0.01 -0.09,0 -0.1,0 -0.1,0 -0.1,0 c -0.6,0 -1.14,0 -1.14,-0.95 0,-0.39 0.25,-0.59 0.64,-0.59 l 9.12,0 c 0.25,0 0.9,0 0.9,0.99 0,0.55 -0.5,0.55 -1.2,0.55 -2.49,0 -2.49,0.35 -2.49,0.8 0,0.59 2.09,8.71 2.44,9.96 0.65,-1.44 2.04,-3.19 4.58,-3.19 l -0.04,1.1 c -3.29,0 -3.94,4.13 -3.94,4.43 0,0.1 0,0.2 0.15,0.8 l 2.44,9.76 c 0.35,1.35 1.69,2.74 2.59,3.49 1.74,1.54 3.19,1.89 4.03,1.89 1.99,0 3.19,-1.74 3.19,-4.68 0,-2.94 -1.64,-8.67 -2.54,-10.56 -1.69,-3.49 -4.08,-5.13 -5.92,-5.13 l 0.04,-1.1 c 5.78,0 12.01,7.28 12.01,14.6 0,4.68 -2.84,7.97 -6.62,7.97 -2.5,0 -4.89,-1.8 -6.53,-3.74 -0.5,2.69 -2.64,3.74 -4.49,3.74 -2.29,0 -3.23,-1.95 -3.68,-2.84 -0.9,-1.7 -1.55,-4.68 -1.55,-4.83 0,-0.5 0.5,-0.5 0.6,-0.5 0.5,0 0.55,0.05 0.85,1.14 0.85,3.54 1.84,5.93 3.63,5.93 0.85,0 1.55,-0.4 1.55,-2.29 0,-1.15 -0.15,-1.69 -0.35,-2.54 z"
         id="path5209" /><path
         style="fill:#000000;stroke-width:0"
         inkscape:connector-curvature="0"
         d="m 554.22,422.29 0.14,0 0.15,0 0.15,0.01 0.07,0 0.07,0 0.07,0.01 0.08,0.01 0.07,0.01 0.07,0.01 0.06,0.02 0.07,0.01 0.07,0.02 0.06,0.02 0.06,0.03 0.06,0.03 0.05,0.03 0.06,0.03 0.05,0.04 0.04,0.04 0.05,0.05 0.03,0.05 0.02,0.03 0.02,0.02 0.02,0.03 0.01,0.03 0.02,0.03 0.01,0.04 0.01,0.03 0.01,0.04 0.01,0.03 0.01,0.04 0.01,0.04 0,0.04 0.01,0.04 0,0.04 0,0.05 0,0.05 c 0,0.99 -0.94,0.99 -1.64,0.99 l -29.84,0 c -0.7,0 -1.64,0 -1.64,-0.99 0,-1 0.94,-1 1.69,-1 z"
         id="path5211" /><path
         style="fill:#000000;stroke-width:0"
         inkscape:connector-curvature="0"
         d="m 554.27,412.62 0.13,0.01 0.14,0 0.14,0 0.07,0.01 0.07,0 0.07,0.01 0.07,0.01 0.07,0.01 0.07,0.01 0.06,0.01 0.07,0.02 0.06,0.02 0.06,0.02 0.06,0.02 0.06,0.03 0.06,0.03 0.05,0.04 0.05,0.04 0.04,0.04 0.05,0.04 0.02,0.03 0.02,0.03 0.01,0.02 0.02,0.03 0.02,0.03 0.01,0.03 0.02,0.03 0.01,0.03 0.01,0.04 0.01,0.03 0.01,0.04 0.01,0.04 0.01,0.04 0,0.04 0.01,0.04 0,0.04 0,0.05 0,0.04 c 0,1 -0.94,1 -1.69,1 l -29.74,0 c -0.75,0 -1.69,0 -1.69,-1 0,-1 0.94,-1 1.64,-1 z"
         id="path5213" /><path
         style="fill:#000000;stroke-width:0"
         inkscape:connector-curvature="0"
         d="m 574.65,397.38 -0.01,-0.02 -0.01,-0.03 0,-0.03 -0.01,-0.02 -0.01,-0.03 0,-0.02 -0.01,-0.03 0,-0.02 -0.01,-0.02 0,-0.02 -0.01,-0.02 0,-0.02 -0.01,-0.02 0,-0.02 -0.01,-0.04 -0.01,-0.03 -0.01,-0.04 0,-0.03 -0.01,-0.03 0,-0.02 -0.01,-0.03 0,-0.02 -0.01,-0.02 0,-0.02 0,-0.02 0,-0.02 -0.01,-0.02 0,-0.01 0,-0.02 0,-0.01 0,-0.01 0,-0.01 0,-0.02 0,-0.02 0,-0.02 0,-0.01 c 0,-0.75 0.54,-1.35 1.39,-1.35 1.04,0 1.64,0.9 1.74,1.05 0.25,0.44 1.85,7.12 3.19,12.5 1,-1.99 2.59,-3.34 4.93,-3.34 l -0.05,1.1 c -3.48,0 -4.28,3.98 -4.28,4.43 0,0.2 0.25,1.2 0.4,1.84 1.39,5.58 1.89,7.38 2.98,9.37 2.15,3.63 4.64,4.73 6.18,4.73 1.84,0 3.44,-1.44 3.44,-4.88 0,-2.74 -1.44,-8.32 -2.79,-10.76 -1.65,-3.14 -4.04,-4.73 -5.93,-4.73 l 0,0 0.05,-1.1 c 5.83,0 12.26,7.03 12.26,14.45 0,5.28 -3.29,8.12 -6.93,8.12 -4.83,0 -10.06,-4.98 -11.55,-11.06 z"
         id="path5215" /><path
         style="fill:#000000;stroke-width:0"
         inkscape:connector-curvature="0"
         d="m 622.46,424.78 0.01,0.06 0.01,0.05 0.01,0.05 0.02,0.06 0.02,0.1 0.01,0.06 0.02,0.05 0.01,0.05 0.01,0.06 0.01,0.05 0.01,0.06 0,0.06 0.01,0.06 0,0.03 0,0.03 0,0.03 0,0.04 c 0,0.84 -0.59,1.34 -1.44,1.34 -0.5,0 -1.85,-0.35 -2.05,-2.14 -0.89,1.84 -2.64,3.14 -4.63,3.14 l 0.05,-1.1 c 3.29,0 3.99,-4.03 3.99,-4.28 0,-0.25 -0.1,-0.55 -0.15,-0.75 l -2.4,-9.51 c -0.29,-1.3 -1.44,-2.54 -2.53,-3.49 -1.05,-0.9 -2.6,-1.79 -4.04,-1.79 -2.49,0 -3.24,2.59 -3.24,4.58 0,2.39 1.45,8.27 2.79,10.81 1.35,2.44 3.49,4.43 5.58,4.43 l -0.05,1.1 c -5.68,0 -11.85,-6.98 -11.85,-14.15 0,-4.93 3.04,-7.87 6.62,-7.87 2.94,0 5.28,2.34 5.78,2.89 l 0.05,-0.05 c -1.05,-4.43 -1.64,-6.48 -1.64,-6.57 -0.2,-0.45 -1.9,-5.39 -7.18,-5.39 -0.94,0 -2.59,0.05 -3.98,0.5 1.49,0.45 2.04,1.74 2.04,2.59 0,0.8 -0.55,1.74 -1.89,1.74 -1.1,0 -2.69,-0.89 -2.69,-2.88 0,-2.04 1.84,-3.04 6.62,-3.04 6.23,0 9.81,3.88 10.56,6.87 z"
         id="path5217" /><path
         style="fill:#000000;stroke-width:0"
         inkscape:connector-curvature="0"
         d="m 658.7,440.02 0,0.01 0,0 0,0.01 0,0.01 0,0.01 0,0.01 0,0.02 0,0.02 -0.01,0.02 0,0.02 -0.01,0.02 0,0.02 -0.01,0.03 -0.01,0.02 -0.01,0.03 -0.01,0.02 -0.02,0.02 -0.01,0.03 -0.02,0.02 -0.02,0.03 -0.03,0.02 -0.01,0.01 -0.01,0.01 -0.01,0.01 -0.02,0.01 -0.01,0.01 -0.02,0.01 -0.01,0.01 -0.02,0.01 -0.02,0.01 -0.02,0.01 -0.01,0.01 -0.02,0 -0.03,0.01 -0.02,0.01 -0.02,0 -0.02,0.01 -0.02,0 -0.03,0.01 -0.02,0 -0.03,0 -0.03,0.01 -0.03,0 -0.03,0 -0.03,0 c -0.74,0 -5.47,-0.45 -6.32,-0.55 -0.4,-0.05 -0.7,-0.3 -0.7,-0.95 0,-0.59 0.45,-0.59 1.2,-0.59 2.39,0 2.49,-0.35 2.49,-0.85 l -0.15,-0.99 -2.99,-11.81 c -0.9,1.84 -2.34,3.19 -4.58,3.19 l 0.05,-1.1 c 3.23,0 3.93,-4.08 3.93,-4.38 0,-0.3 -0.1,-0.6 -0.15,-0.85 l -2.49,-9.76 c -0.25,-0.9 -0.25,-1 -0.99,-1.84 -2.19,-2.75 -4.24,-3.54 -5.63,-3.54 -2.49,0 -3.19,2.74 -3.19,4.68 0,2.49 1.59,8.62 2.74,10.91 1.54,2.94 3.78,4.78 5.78,4.78 l -0.05,1.1 c -5.83,0 -12.01,-7.32 -12.01,-14.6 0,-4.68 2.74,-7.97 6.63,-7.97 0.99,0 3.48,0.2 6.47,3.74 0.4,-2.09 2.14,-3.74 4.53,-3.74 1.75,0 2.9,1.15 3.69,2.74 0.85,1.79 1.5,4.83 1.5,4.93 0,0.5 -0.45,0.5 -0.6,0.5 -0.5,0 -0.55,-0.2 -0.7,-0.89 -0.85,-3.24 -1.74,-6.18 -3.78,-6.18 -1.35,0 -1.5,1.29 -1.5,2.29 0,1.2 0.1,1.54 0.3,2.39 z"
         id="path5219" /><path
         style="fill:#000000;stroke-width:0"
         inkscape:connector-curvature="0"
         d="m 672.3,440.02 0,0.01 0,0 0,0.01 0,0.01 0,0.01 -0.01,0.01 0,0.02 0,0.02 0,0.02 -0.01,0.02 0,0.02 -0.01,0.02 -0.01,0.03 -0.01,0.02 -0.01,0.03 -0.01,0.02 -0.01,0.02 -0.02,0.03 -0.02,0.02 -0.02,0.03 -0.02,0.02 -0.01,0.01 -0.02,0.01 -0.01,0.01 -0.01,0.01 -0.02,0.01 -0.01,0.01 -0.02,0.01 -0.02,0.01 -0.01,0.01 -0.02,0.01 -0.02,0.01 -0.02,0 -0.02,0.01 -0.02,0.01 -0.02,0 -0.03,0.01 -0.02,0 -0.03,0.01 -0.02,0 -0.03,0 -0.02,0.01 -0.03,0 -0.03,0 -0.03,0 c -1.15,0 -4.78,-0.4 -6.08,-0.5 -0.4,-0.05 -0.95,-0.1 -0.95,-1 0,-0.59 0.45,-0.59 1.2,-0.59 2.39,0 2.49,-0.35 2.49,-0.85 l -0.15,-0.99 -7.22,-28.7 c -0.2,-0.69 -0.2,-0.8 -0.2,-1.09 0,-1.15 0.99,-1.4 1.44,-1.4 0.8,0 1.6,0.6 1.85,1.3 l 0.94,3.78 1.1,4.49 c 0.3,1.09 0.6,2.19 0.85,3.34 0.1,0.29 0.49,1.94 0.55,2.23 0.14,0.45 1.69,3.24 3.38,4.59 1.1,0.8 2.64,1.74 4.78,1.74 2.15,0 2.69,-1.69 2.69,-3.49 0,-2.68 -1.89,-8.11 -3.09,-11.15 -0.39,-1.15 -0.64,-1.75 -0.64,-2.74 0,-2.34 1.74,-4.09 4.08,-4.09 4.68,0 6.53,7.28 6.53,7.67 0,0.5 -0.45,0.5 -0.6,0.5 -0.5,0 -0.5,-0.15 -0.75,-0.89 -0.75,-2.64 -2.34,-6.18 -5.08,-6.18 -0.84,0 -1.19,0.5 -1.19,1.64 0,1.25 0.44,2.44 0.89,3.54 0.8,2.14 3.04,8.07 3.04,10.96 0,3.24 -1.99,5.33 -5.73,5.33 -3.13,0 -5.53,-1.55 -7.37,-3.84 z"
         id="path5221" /></g>  </g>
  <g
     id="g5373"
     transform="matrix(0.85306517,0,0,0.85306517,21.627786,175.92385)">
    <g
       word-spacing="normal"
       letter-spacing="normal"
       font-size-adjust="none"
       font-stretch="normal"
       font-weight="normal"
       font-variant="normal"
       font-style="normal"
       stroke-miterlimit="10.433"
       xml:space="preserve"
       transform="matrix(1.0629921,0,0,-1.0629921,-186.02362,789.27165)"
       id="g5375"
       style="font-style:normal;font-variant:normal;font-weight:normal;font-stretch:normal;letter-spacing:normal;word-spacing:normal;text-anchor:start;fill:none;fill-opacity:1;fill-rule:evenodd;stroke:#000000;stroke-linecap:butt;stroke-linejoin:miter;stroke-miterlimit:10.43299961;stroke-dasharray:none;stroke-dashoffset:0;stroke-opacity:1"><path
         id="path5377"
         d="m 458.24,399.92 -0.03,-0.15 -0.04,-0.15 -0.03,-0.14 -0.04,-0.13 -0.03,-0.13 -0.04,-0.11 -0.03,-0.12 -0.04,-0.1 -0.04,-0.1 -0.04,-0.09 -0.04,-0.09 -0.05,-0.08 -0.05,-0.07 -0.05,-0.07 -0.06,-0.07 -0.06,-0.05 -0.07,-0.06 -0.07,-0.05 -0.08,-0.04 -0.09,-0.04 -0.09,-0.04 -0.1,-0.03 -0.11,-0.03 -0.12,-0.02 -0.13,-0.02 -0.13,-0.02 -0.07,0 -0.08,-0.01 -0.07,-0.01 -0.08,0 -0.08,-0.01 -0.09,0 -0.08,0 -0.09,-0.01 -0.09,0 -0.1,0 -0.1,0 -0.1,0 c -0.6,0 -1.14,0 -1.14,-0.95 0,-0.39 0.25,-0.59 0.64,-0.59 l 9.12,0 c 0.25,0 0.9,0 0.9,0.99 0,0.55 -0.5,0.55 -1.2,0.55 -2.49,0 -2.49,0.35 -2.49,0.8 0,0.59 2.09,8.71 2.44,9.96 0.65,-1.44 2.04,-3.19 4.58,-3.19 l -0.04,1.1 c -3.29,0 -3.94,4.13 -3.94,4.43 0,0.1 0,0.2 0.15,0.8 l 2.44,9.76 c 0.35,1.35 1.69,2.74 2.59,3.49 1.74,1.54 3.19,1.89 4.03,1.89 1.99,0 3.19,-1.74 3.19,-4.68 0,-2.94 -1.64,-8.67 -2.54,-10.56 -1.69,-3.49 -4.08,-5.13 -5.92,-5.13 l 0.04,-1.1 c 5.78,0 12.01,7.28 12.01,14.6 0,4.68 -2.84,7.97 -6.62,7.97 -2.5,0 -4.89,-1.8 -6.53,-3.74 -0.5,2.69 -2.64,3.74 -4.49,3.74 -2.29,0 -3.23,-1.95 -3.68,-2.84 -0.9,-1.7 -1.55,-4.68 -1.55,-4.83 0,-0.5 0.5,-0.5 0.6,-0.5 0.5,0 0.55,0.05 0.85,1.14 0.85,3.54 1.84,5.93 3.63,5.93 0.85,0 1.55,-0.4 1.55,-2.29 0,-1.15 -0.15,-1.69 -0.35,-2.54 z"
         inkscape:connector-curvature="0"
         style="fill:#000000;stroke-width:0" /><path
         id="path5379"
         d="m 529.22,422.29 0.14,0 0.15,0 0.15,0.01 0.07,0 0.07,0 0.07,0.01 0.08,0.01 0.07,0.01 0.07,0.01 0.06,0.02 0.07,0.01 0.07,0.02 0.06,0.02 0.06,0.03 0.06,0.03 0.05,0.03 0.06,0.03 0.05,0.04 0.04,0.04 0.05,0.05 0.03,0.05 0.02,0.03 0.02,0.02 0.02,0.03 0.01,0.03 0.02,0.03 0.01,0.04 0.01,0.03 0.01,0.04 0.01,0.03 0.01,0.04 0.01,0.04 0,0.04 0.01,0.04 0,0.04 0,0.05 0,0.05 c 0,0.99 -0.94,0.99 -1.64,0.99 l -29.84,0 c -0.7,0 -1.64,0 -1.64,-0.99 0,-1 0.94,-1 1.69,-1 z"
         inkscape:connector-curvature="0"
         style="fill:#000000;stroke-width:0" /><path
         id="path5381"
         d="m 529.27,412.62 0.13,0.01 0.14,0 0.14,0 0.07,0.01 0.07,0 0.07,0.01 0.07,0.01 0.07,0.01 0.07,0.01 0.06,0.01 0.07,0.02 0.06,0.02 0.06,0.02 0.06,0.02 0.06,0.03 0.06,0.03 0.05,0.04 0.05,0.04 0.04,0.04 0.05,0.04 0.02,0.03 0.02,0.03 0.01,0.02 0.02,0.03 0.02,0.03 0.01,0.03 0.02,0.03 0.01,0.03 0.01,0.04 0.01,0.03 0.01,0.04 0.01,0.04 0.01,0.04 0,0.04 0.01,0.04 0,0.04 0,0.05 0,0.04 c 0,1 -0.94,1 -1.69,1 l -29.74,0 c -0.75,0 -1.69,0 -1.69,-1 0,-1 0.94,-1 1.64,-1 z"
         inkscape:connector-curvature="0"
         style="fill:#000000;stroke-width:0" /><path
         id="path5383"
         d="m 544.71,418.4 0.01,0.58 0.04,0.57 0.07,0.55 0.09,0.53 0.11,0.52 0.13,0.5 0.16,0.48 0.17,0.47 0.19,0.46 0.2,0.44 0.22,0.42 0.23,0.41 0.24,0.4 0.25,0.38 0.26,0.36 0.26,0.35 0.27,0.34 0.27,0.32 0.28,0.31 0.28,0.29 0.27,0.28 0.27,0.26 0.27,0.26 0.27,0.23 0.26,0.22 0.25,0.21 0.24,0.2 0.23,0.18 0.22,0.17 0.2,0.15 0.19,0.14 0.17,0.13 c 1.34,1 2.39,2.79 2.39,4.88 0,2.89 -1.99,6.73 -9.41,6.73 -5.38,0 -8.47,-3.39 -8.47,-6.63 0,-1.69 1.14,-2.39 2.29,-2.39 1.4,0 2.29,1 2.29,2.29 0,2.25 -2.09,2.25 -2.79,2.25 1.55,2.63 4.44,3.38 6.53,3.38 5.43,0 5.43,-3.38 5.43,-5.33 0,-2.94 -0.8,-3.83 -1.7,-4.73 -3.28,-3.58 -4.38,-8.17 -4.38,-11.21 l 0,-2.24 c 0,-0.9 0,-1.19 0.6,-1.19 0.65,0 0.65,0.44 0.65,1.34 z"
         inkscape:connector-curvature="0"
         style="fill:#000000;stroke-width:0" /><path
         id="path5385"
         d="m 546.7,408.64 0,0.14 -0.01,0.13 -0.02,0.13 -0.03,0.13 -0.02,0.13 -0.04,0.12 -0.04,0.12 -0.05,0.12 -0.05,0.12 -0.06,0.11 -0.07,0.11 -0.07,0.11 -0.07,0.1 -0.08,0.1 -0.08,0.1 -0.09,0.09 -0.09,0.09 -0.1,0.08 -0.1,0.08 -0.1,0.08 -0.11,0.07 -0.11,0.06 -0.11,0.06 -0.12,0.05 -0.12,0.05 -0.12,0.04 -0.13,0.04 -0.12,0.03 -0.13,0.02 -0.13,0.02 -0.14,0.01 -0.13,0 c -1.45,0 -2.64,-1.19 -2.64,-2.64 0,-1.44 1.19,-2.64 2.64,-2.64 1.44,0 2.64,1.2 2.64,2.64 z"
         inkscape:connector-curvature="0"
         style="fill:#000000;stroke-width:0" /></g>  </g>
  <g
     transform="matrix(0.91512809,0,0,0.91512809,41.765867,-295.0618)"
     id="g5453">
    <g
       style="font-style:normal;font-variant:normal;font-weight:normal;font-stretch:normal;letter-spacing:normal;word-spacing:normal;text-anchor:start;fill:none;fill-opacity:1;fill-rule:evenodd;stroke:#000000;stroke-linecap:butt;stroke-linejoin:miter;stroke-miterlimit:10.43299961;stroke-dasharray:none;stroke-dashoffset:0;stroke-opacity:1"
       id="g5455"
       transform="matrix(1.0629921,0,0,-1.0629921,-186.02362,789.27165)"
       xml:space="preserve"
       stroke-miterlimit="10.433"
       font-style="normal"
       font-variant="normal"
       font-weight="normal"
       font-stretch="normal"
       font-size-adjust="none"
       letter-spacing="normal"
       word-spacing="normal"><path
         style="fill:#000000;stroke-width:0"
         inkscape:connector-curvature="0"
         d="m 458.24,399.92 -0.03,-0.15 -0.04,-0.15 -0.03,-0.14 -0.04,-0.13 -0.03,-0.13 -0.04,-0.11 -0.03,-0.12 -0.04,-0.1 -0.04,-0.1 -0.04,-0.09 -0.04,-0.09 -0.05,-0.08 -0.05,-0.07 -0.05,-0.07 -0.06,-0.07 -0.06,-0.05 -0.07,-0.06 -0.07,-0.05 -0.08,-0.04 -0.09,-0.04 -0.09,-0.04 -0.1,-0.03 -0.11,-0.03 -0.12,-0.02 -0.13,-0.02 -0.13,-0.02 -0.07,0 -0.08,-0.01 -0.07,-0.01 -0.08,0 -0.08,-0.01 -0.09,0 -0.08,0 -0.09,-0.01 -0.09,0 -0.1,0 -0.1,0 -0.1,0 c -0.6,0 -1.14,0 -1.14,-0.95 0,-0.39 0.25,-0.59 0.64,-0.59 l 9.12,0 c 0.25,0 0.9,0 0.9,0.99 0,0.55 -0.5,0.55 -1.2,0.55 -2.49,0 -2.49,0.35 -2.49,0.8 0,0.59 2.09,8.71 2.44,9.96 0.65,-1.44 2.04,-3.19 4.58,-3.19 l -0.04,1.1 c -3.29,0 -3.94,4.13 -3.94,4.43 0,0.1 0,0.2 0.15,0.8 l 2.44,9.76 c 0.35,1.35 1.69,2.74 2.59,3.49 1.74,1.54 3.19,1.89 4.03,1.89 1.99,0 3.19,-1.74 3.19,-4.68 0,-2.94 -1.64,-8.67 -2.54,-10.56 -1.69,-3.49 -4.08,-5.13 -5.92,-5.13 l 0.04,-1.1 c 5.78,0 12.01,7.28 12.01,14.6 0,4.68 -2.84,7.97 -6.62,7.97 -2.5,0 -4.89,-1.8 -6.53,-3.74 -0.5,2.69 -2.64,3.74 -4.49,3.74 -2.29,0 -3.23,-1.95 -3.68,-2.84 -0.9,-1.7 -1.55,-4.68 -1.55,-4.83 0,-0.5 0.5,-0.5 0.6,-0.5 0.5,0 0.55,0.05 0.85,1.14 0.85,3.54 1.84,5.93 3.63,5.93 0.85,0 1.55,-0.4 1.55,-2.29 0,-1.15 -0.15,-1.69 -0.35,-2.54 z"
         id="path5457" /><path
         style="fill:#000000;stroke-width:0"
         inkscape:connector-curvature="0"
         d="m 529.22,422.29 0.14,0 0.15,0 0.15,0.01 0.07,0 0.07,0 0.07,0.01 0.08,0.01 0.07,0.01 0.07,0.01 0.06,0.02 0.07,0.01 0.07,0.02 0.06,0.02 0.06,0.03 0.06,0.03 0.05,0.03 0.06,0.03 0.05,0.04 0.04,0.04 0.05,0.05 0.03,0.05 0.02,0.03 0.02,0.02 0.02,0.03 0.01,0.03 0.02,0.03 0.01,0.04 0.01,0.03 0.01,0.04 0.01,0.03 0.01,0.04 0.01,0.04 0,0.04 0.01,0.04 0,0.04 0,0.05 0,0.05 c 0,0.99 -0.94,0.99 -1.64,0.99 l -29.84,0 c -0.7,0 -1.64,0 -1.64,-0.99 0,-1 0.94,-1 1.69,-1 z"
         id="path5459" /><path
         style="fill:#000000;stroke-width:0"
         inkscape:connector-curvature="0"
         d="m 529.27,412.62 0.13,0.01 0.14,0 0.14,0 0.07,0.01 0.07,0 0.07,0.01 0.07,0.01 0.07,0.01 0.07,0.01 0.06,0.01 0.07,0.02 0.06,0.02 0.06,0.02 0.06,0.02 0.06,0.03 0.06,0.03 0.05,0.04 0.05,0.04 0.04,0.04 0.05,0.04 0.02,0.03 0.02,0.03 0.01,0.02 0.02,0.03 0.02,0.03 0.01,0.03 0.02,0.03 0.01,0.03 0.01,0.04 0.01,0.03 0.01,0.04 0.01,0.04 0.01,0.04 0,0.04 0.01,0.04 0,0.04 0,0.05 0,0.04 c 0,1 -0.94,1 -1.69,1 l -29.74,0 c -0.75,0 -1.69,0 -1.69,-1 0,-1 0.94,-1 1.64,-1 z"
         id="path5461" /><path
         style="fill:#000000;stroke-width:0"
         inkscape:connector-curvature="0"
         d="m 569.91,421.94 0,0.75 -0.01,0.74 -0.02,0.75 -0.03,0.74 -0.05,0.75 -0.06,0.74 -0.07,0.74 -0.1,0.73 -0.11,0.73 -0.14,0.73 -0.16,0.72 -0.19,0.72 -0.22,0.71 -0.24,0.71 -0.28,0.7 -0.15,0.35 -0.16,0.35 c -2.29,4.78 -6.37,5.58 -8.47,5.58 -2.98,0 -6.62,-1.3 -8.67,-5.93 -1.59,-3.44 -1.84,-7.32 -1.84,-11.31 0,-3.74 0.2,-8.22 2.24,-12.01 2.15,-4.03 5.78,-5.03 8.22,-5.03 l 0,1.1 c -1.94,0 -4.88,1.25 -5.78,6.03 -0.54,2.99 -0.54,7.57 -0.54,10.51 0,3.19 0,6.47 0.4,9.16 0.94,5.93 4.68,6.38 5.92,6.38 1.65,0 4.94,-0.9 5.88,-5.83 0.5,-2.79 0.5,-6.57 0.5,-9.71 0,-3.74 0,-7.13 -0.55,-10.31 -0.75,-4.73 -3.58,-6.23 -5.83,-6.23 l 0,0 0,-1.1 c 2.69,0 6.48,1.05 8.67,5.78 1.59,3.44 1.84,7.32 1.84,11.26 z"
         id="path5463" /></g>  </g>
</svg>
